<svg width="850" height="648" viewBox="0 0 850 648" fill="none" xmlns="http://www.w3.org/2000/svg">
<g filter="url(#filter0_d_8529_684)">
<g opacity="0.1">
<path d="M134.514 90.8504C132.506 75.8749 123.138 63.1239 109.454 56.7431C95.7702 50.3623 79.981 51.3828 67.2195 59.4713L36.4662 78.9603C31.364 82.1932 27.5179 86.8845 25.3448 92.5223C23.1712 98.1613 22.8759 104.218 24.4883 110.042C26.105 115.863 29.4791 120.9 34.2455 124.609C39.012 128.318 44.7247 130.347 50.764 130.479L51.1692 130.486C66.314 130.929 80.6998 137.698 90.6956 149.099C93.2744 152.039 96.3751 154.364 99.8437 155.981C101.729 156.861 103.727 157.531 105.806 157.979C111.71 159.247 117.738 158.594 123.238 156.09C128.735 153.586 133.187 149.466 136.111 144.175C139.035 138.884 140.156 132.924 139.354 126.935L134.514 90.8504Z" fill="white"/>
<path d="M54.7936 52.8162C61.0074 53.2508 66.9904 50.8736 71.6404 46.1217C76.0661 41.6003 78.7577 35.4211 79.2188 28.7204C79.6769 22.0229 77.8562 15.5323 74.0925 10.4423C70.1384 5.09672 64.5391 1.91558 58.3323 1.48887C45.85 0.620103 34.8964 11.4276 33.9134 25.5876C33.1442 36.8642 38.931 46.9074 47.6258 50.9617C49.8459 51.9969 52.2558 52.6414 54.7936 52.8162Z" fill="white"/>
<path d="M99.174 47.0103C112.597 53.2692 129.174 46.2298 136.127 31.3181C143.082 16.4028 137.819 -0.823188 124.397 -7.08202C110.976 -13.3403 94.3987 -6.29779 87.4437 8.61752C80.4906 23.5291 85.7528 40.7521 99.174 47.0103Z" fill="white"/>
<path d="M137.329 73.4523L137.33 73.4529C139.043 75.0818 140.962 76.3736 143.025 77.3355C152.651 81.8241 165.339 79.1073 174 69.8786C178.987 64.5666 181.945 57.8703 182.327 51.0243C182.729 43.858 180.299 37.387 175.483 32.8019C170.665 28.2162 164.113 26.1369 157.033 26.9441C150.268 27.7152 143.798 31.0668 138.814 36.3799C128.298 47.5871 127.632 64.2179 137.329 73.4523V73.4523Z" fill="white"/>
<path d="M189.84 93.695L189.838 93.6895C183.822 82.7045 168.781 79.2366 156.306 85.9613C143.835 92.6945 138.573 107.11 144.573 118.093C146.76 122.101 150.15 125.109 154.179 126.988C161.2 130.262 170.168 130.105 178.107 125.83C190.576 119.096 195.84 104.682 189.84 93.695V93.695Z" fill="white"/>
</g>
<g opacity="0.1">
<path d="M351.709 93.693C354.794 103.398 362.504 110.765 372.334 113.399C382.164 116.033 392.524 113.508 400.048 106.646L418.18 90.1106C421.188 87.3677 423.192 83.8036 423.975 79.8072C424.758 75.8099 424.245 71.7549 422.493 68.078C420.739 64.4034 417.91 61.455 414.312 59.5511C410.714 57.6473 406.685 56.969 402.661 57.5881L402.391 57.6306C392.286 59.109 381.946 56.2996 373.977 49.9022C371.921 48.2523 369.591 47.0722 367.099 46.4046C365.744 46.0416 364.34 45.8304 362.908 45.7765C358.84 45.6255 354.916 46.7644 351.558 49.0702C348.203 51.3756 345.73 54.6316 344.408 58.4854C343.086 62.3393 343.04 66.4268 344.273 70.3082L351.709 93.693Z" fill="white"/>
<path d="M409.075 109.609C404.899 110.048 401.206 112.326 398.676 116.024C396.268 119.543 395.204 123.959 395.682 128.461C396.162 132.96 398.13 137.055 401.224 139.993C404.474 143.079 408.563 144.535 412.733 144.092C421.12 143.208 427.125 134.752 426.121 125.238C425.311 117.663 420.295 111.674 414.049 110.001C412.455 109.574 410.78 109.428 409.075 109.609Z" fill="white"/>
<path d="M380.296 118.656C370.655 116.073 360.475 122.685 357.605 133.397C354.734 144.111 360.243 154.929 369.885 157.512C379.526 160.096 389.705 153.481 392.575 142.767C395.446 132.056 389.937 121.24 380.296 118.656Z" fill="white"/>
<path d="M351.876 105.571L351.875 105.57C350.548 104.69 349.123 104.057 347.641 103.66C340.726 101.807 332.623 105.095 327.954 112.234C325.265 116.344 324.086 121.135 324.633 125.723C325.205 130.527 327.576 134.538 331.309 137.018C335.043 139.498 339.635 140.111 344.241 138.747C348.64 137.443 352.543 134.461 355.229 130.351C360.898 121.682 359.394 110.565 351.876 105.571V105.571Z" fill="white"/>
<path d="M314.653 98.2797L314.655 98.2831C319.934 104.87 330.323 105.412 337.817 99.4885C345.306 93.5599 347.112 83.3757 341.845 76.7875C339.924 74.3836 337.322 72.7835 334.428 72.008C329.384 70.6564 323.45 71.8098 318.681 75.5766C311.192 81.5055 309.385 91.6894 314.653 98.2797V98.2797Z" fill="white"/>
</g>
<g opacity="0.1">
<path d="M30.3892 371.32C29.738 357.183 22.0389 344.522 9.79244 337.451C-2.45403 330.381 -17.2688 330.044 -29.8357 336.549L-60.1199 352.221C-65.1442 354.821 -69.1157 358.884 -71.6034 363.967C-74.0918 369.051 -74.8618 374.678 -73.8329 380.243C-72.7997 385.806 -70.0628 390.781 -65.9185 394.631C-61.7741 398.48 -56.6097 400.84 -50.9858 401.456L-50.6084 401.496C-36.5142 403.146 -23.6448 410.636 -15.2494 422.089C-13.0834 425.042 -10.3802 427.465 -7.27597 429.257C-5.58827 430.231 -3.77975 431.02 -1.87618 431.607C3.52901 433.273 9.20594 433.155 14.5421 431.268C19.8754 429.381 24.3655 425.9 27.5258 421.202C30.6861 416.505 32.2184 411.035 31.959 405.382L30.3892 371.32Z" fill="white"/>
<path d="M0.996012 327.531C13.0084 334.467 29.0497 329.252 36.7545 315.907C44.4611 302.559 40.9576 286.057 28.9453 279.122C16.934 272.187 0.89256 277.404 -6.81411 290.753C-14.5189 304.098 -11.0152 320.597 0.996012 327.531Z" fill="white"/>
<path d="M34.4359 355.317L34.437 355.317C35.9017 356.977 37.5871 358.339 39.4332 359.405C48.0481 364.378 60.1078 362.879 68.9423 354.976C74.0286 350.427 77.3346 344.421 78.2506 338.065C79.2107 331.411 77.4713 325.175 73.3522 320.504C69.232 315.832 63.2886 313.357 56.6163 313.533C50.2424 313.7 43.9319 316.299 38.8478 320.849C28.121 330.447 26.1419 345.909 34.4359 355.317V355.317Z" fill="white"/>
<path d="M81.7775 378.49L81.7761 378.485C77.06 367.745 63.31 363.281 51.1213 368.537C38.9366 373.801 32.8495 386.821 37.5508 397.558C39.2645 401.476 42.1815 404.559 45.7871 406.641C52.0714 410.269 60.4506 410.855 68.2068 407.515C80.3904 402.25 86.4785 389.231 81.7775 378.49V378.49Z" fill="white"/>
</g>
<g opacity="0.1">
<path d="M840.926 508.693C831.24 503.681 819.823 503.94 810.385 509.389C800.948 514.838 795.014 524.596 794.513 535.49L793.304 561.741C793.103 566.096 794.284 570.312 796.718 573.931C799.152 577.551 802.611 580.233 806.722 581.691C810.833 583.145 815.208 583.235 819.374 581.953C823.54 580.67 827.105 578.132 829.683 574.616L829.855 574.38C836.387 565.609 846.345 559.906 857.224 558.716C860.03 558.408 862.688 557.538 865.081 556.156C866.381 555.406 867.604 554.502 868.73 553.458C871.924 550.493 874.033 546.659 874.83 542.37C875.625 538.083 875.032 533.745 873.115 529.826C871.198 525.906 868.137 522.776 864.264 520.771L840.926 508.693Z" fill="white"/>
<path d="M785.433 540.083C788.263 536.589 789.334 532.067 788.45 527.35C787.609 522.862 785.07 518.712 781.299 515.666C777.529 512.622 772.937 511.011 768.37 511.129C763.572 511.254 759.373 513.248 756.551 516.741C750.87 523.761 752.725 534.712 760.69 541.155C767.039 546.278 775.372 547.015 781.369 543.553C782.9 542.669 784.279 541.511 785.433 540.083Z" fill="white"/>
<path d="M800.375 511.438C809.632 506.093 812.333 493.378 806.395 483.093C800.456 472.806 788.093 468.786 778.835 474.131C769.579 479.475 766.88 492.192 772.819 502.479C778.757 512.763 791.118 516.782 800.375 511.438Z" fill="white"/>
<path d="M831.804 499.827L831.805 499.827C833.477 499.489 835.035 498.888 836.458 498.067C843.097 494.234 846.743 485.608 844.873 476.666C843.797 471.518 841.062 466.997 837.173 463.937C833.102 460.732 828.27 459.49 823.565 460.44C818.86 461.389 814.918 464.402 812.463 468.923C810.119 473.241 809.422 478.455 810.5 483.601C812.772 494.459 822.329 501.738 831.804 499.827Z" fill="white"/>
<path d="M865.512 477.16L865.508 477.159C856.523 476.168 848.245 483.625 847.056 493.785C845.875 503.946 852.219 513.026 861.197 514.025C864.472 514.391 867.654 513.633 870.432 512.028C875.275 509.232 878.895 503.865 879.654 497.402C880.835 487.242 874.492 478.161 865.512 477.16Z" fill="white"/>
</g>
<g opacity="0.1">
<path d="M812.729 25.8034C803.874 19.3644 792.503 17.8961 782.313 21.8773C772.122 25.8585 764.759 34.6458 762.614 45.3818L757.446 71.2526C756.588 75.5445 757.123 79.9076 758.992 83.8671C760.86 87.8275 763.888 91.0125 767.747 93.0807C771.607 95.1453 775.936 95.8964 780.264 95.2531C784.593 94.6099 788.514 92.6303 791.605 89.5306L791.811 89.3219C799.62 81.6044 810.365 77.4496 821.342 77.9131C824.173 78.0322 826.943 77.5698 829.526 76.5607C830.931 76.012 832.281 75.3005 833.556 74.4345C837.175 71.974 839.848 68.4877 841.287 64.3517C842.724 60.2175 842.791 55.8224 841.481 51.6428C840.17 47.4632 837.606 43.8938 834.066 41.3181L812.729 25.8034Z" fill="white"/>
<path d="M752.909 48.5668C756.245 45.5268 757.992 41.2013 757.827 36.3865C757.671 31.8047 755.778 27.3025 752.497 23.7087C749.215 20.118 744.902 17.8253 740.351 17.252C735.57 16.6505 731.102 17.9943 727.773 21.0345C721.073 27.1432 721.259 38.2917 728.19 45.8908C733.716 51.9353 741.876 53.926 748.351 51.3964C750.004 50.7505 751.547 49.8096 752.909 48.5668Z" fill="white"/>
<path d="M772.068 22.3975C782.063 18.4924 786.666 6.28097 782.328 -4.8237C777.989 -15.9311 766.326 -21.7902 756.33 -17.8851C746.336 -13.9804 741.734 -1.7675 746.074 9.33992C750.412 20.4446 762.073 26.3022 772.068 22.3975Z" fill="white"/>
<path d="M805.016 15.6245L805.017 15.6241C806.727 15.5413 808.365 15.1814 809.901 14.5813C817.069 11.7807 821.993 3.77049 821.488 -5.38666C821.198 -10.6581 819.167 -15.5584 815.77 -19.1838C812.214 -22.9796 807.606 -24.9427 802.794 -24.7119C797.98 -24.4807 793.612 -22.0862 790.493 -17.9706C787.513 -14.0391 786.033 -8.97066 786.325 -3.69994C786.939 7.41938 795.324 16.0883 805.016 15.6245V15.6245Z" fill="white"/>
<path d="M841.898 -1.77547L841.894 -1.77716C833.126 -4.119 823.784 2.03049 821.068 11.9344C818.359 21.8398 823.283 31.8101 832.042 34.1596C835.237 35.0176 838.509 34.7458 841.51 33.5736C846.739 31.5307 851.143 26.7517 852.873 20.4513C855.581 10.5462 850.659 0.575564 841.898 -1.77547Z" fill="white"/>
</g>
<g opacity="0.1">
<path d="M383.426 569.12C370.952 562.664 356.247 562.998 344.092 570.016C331.936 577.034 324.294 589.602 323.649 603.632L322.092 637.442C321.833 643.051 323.354 648.482 326.489 653.143C329.624 657.805 334.079 661.259 339.373 663.137C344.668 665.01 350.303 665.126 355.669 663.474C361.034 661.822 365.625 658.554 368.946 654.025L369.168 653.721C377.581 642.424 390.406 635.079 404.417 633.546C408.031 633.15 411.455 632.029 414.536 630.25C416.211 629.283 417.786 628.119 419.236 626.775C423.35 622.955 426.067 618.017 427.093 612.493C428.117 606.972 427.353 601.385 424.884 596.337C422.415 591.289 418.473 587.258 413.485 584.675L383.426 569.12Z" fill="white"/>
<path d="M311.955 609.547C315.599 605.047 316.979 599.223 315.84 593.149C314.757 587.368 311.487 582.023 306.63 578.099C301.775 574.179 295.861 572.105 289.978 572.257C283.799 572.417 278.391 574.985 274.757 579.484C267.44 588.526 269.829 602.629 280.087 610.928C288.264 617.527 298.998 618.475 306.721 614.016C308.693 612.878 310.469 611.386 311.955 609.547Z" fill="white"/>
<path d="M331.199 572.655C343.122 565.771 346.601 549.394 338.953 536.148C331.304 522.899 315.38 517.721 303.457 524.605C291.535 531.488 288.059 547.866 295.708 561.116C303.356 574.361 319.277 579.538 331.199 572.655Z" fill="white"/>
<path d="M371.679 557.7L371.68 557.7C373.833 557.264 375.84 556.491 377.673 555.433C386.223 550.496 390.92 539.386 388.511 527.87C387.125 521.24 383.603 515.417 378.593 511.476C373.351 507.348 367.127 505.749 361.068 506.971C355.007 508.194 349.93 512.075 346.769 517.897C343.75 523.459 342.852 530.173 344.24 536.802C347.167 550.786 359.476 560.161 371.679 557.7V557.7Z" fill="white"/>
<path d="M415.093 528.507L415.088 528.505C403.515 527.229 392.854 536.833 391.323 549.919C389.801 563.005 397.972 574.699 409.535 575.987C413.753 576.458 417.851 575.481 421.43 573.415C427.667 569.813 432.329 562.902 433.307 554.576C434.828 541.491 426.658 529.796 415.093 528.507V528.507Z" fill="white"/>
</g>
</g>
<defs>
<filter id="filter0_d_8529_684" x="-78.2764" y="-24.7301" width="962.072" height="697.363" filterUnits="userSpaceOnUse" color-interpolation-filters="sRGB">
<feFlood flood-opacity="0" result="BackgroundImageFix"/>
<feColorMatrix in="SourceAlpha" type="matrix" values="0 0 0 0 0 0 0 0 0 0 0 0 0 0 0 0 0 0 127 0" result="hardAlpha"/>
<feOffset dy="4"/>
<feGaussianBlur stdDeviation="2"/>
<feComposite in2="hardAlpha" operator="out"/>
<feColorMatrix type="matrix" values="0 0 0 0 0 0 0 0 0 0 0 0 0 0 0 0 0 0 0.25 0"/>
<feBlend mode="normal" in2="BackgroundImageFix" result="effect1_dropShadow_8529_684"/>
<feBlend mode="normal" in="SourceGraphic" in2="effect1_dropShadow_8529_684" result="shape"/>
</filter>
</defs>
</svg>
